<svg xmlns="http://www.w3.org/2000/svg" viewBox="0 0 16 16" shape-rendering="crispEdges">
  <rect x="2" y="2" width="1" height="1" fill="#dbeafe"/>
  <rect x="12" y="3" width="1" height="1" fill="#93c5fd"/>
  <rect x="3" y="5" width="1" height="1" fill="#7dd3fc"/>

  <rect x="6" y="2" width="4" height="1" fill="#1d4ed8" opacity="0.35"/>
  <rect x="5" y="3" width="6" height="2" fill="#0ea5e9" opacity="0.18"/>
  <rect x="6" y="4" width="4" height="2" fill="#67e8f9" opacity="0.16"/>

  <rect x="11" y="3" width="2" height="2" fill="#38bdf8"/>
  <rect x="12" y="2" width="1" height="1" fill="#67e8f9"/>

  <rect x="7" y="2" width="2" height="1" fill="#67e8f9"/>
  <rect x="7" y="3" width="2" height="1" fill="#e2e8f0"/>
  <rect x="5" y="4" width="6" height="2" fill="#e2e8f0"/>
  <rect x="6" y="5" width="4" height="1" fill="#7dd3fc"/>
  <rect x="7" y="6" width="2" height="4" fill="#cbd5e1"/>
  <rect x="6" y="9" width="1" height="2" fill="#cbd5e1"/>
  <rect x="9" y="9" width="1" height="2" fill="#cbd5e1"/>

  <rect x="5" y="11" width="6" height="1" fill="#94a3b8"/>
  <rect x="4" y="12" width="8" height="1" fill="#64748b"/>
  <rect x="3" y="13" width="10" height="1" fill="#1e293b"/>
</svg>
