<svg xmlns="http://www.w3.org/2000/svg" viewBox="0 0 1200 630" fill="none">
  <defs>
    <linearGradient id="bg" x1="180" y1="40" x2="1000" y2="560" gradientUnits="userSpaceOnUse">
      <stop offset="0" stop-color="#081225"/>
      <stop offset="0.55" stop-color="#15315f"/>
      <stop offset="1" stop-color="#1d4f8c"/>
    </linearGradient>
    <linearGradient id="glow" x1="600" y1="120" x2="600" y2="630" gradientUnits="userSpaceOnUse">
      <stop offset="0" stop-color="#67e8f9" stop-opacity="0.26"/>
      <stop offset="1" stop-color="#67e8f9" stop-opacity="0"/>
    </linearGradient>
    <linearGradient id="river" x1="240" y1="390" x2="980" y2="540" gradientUnits="userSpaceOnUse">
      <stop offset="0" stop-color="#0ea5e9" stop-opacity="0.18"/>
      <stop offset="1" stop-color="#d946ef" stop-opacity="0.12"/>
    </linearGradient>
  </defs>

  <rect width="1200" height="630" rx="36" fill="url(#bg)"/>
  <circle cx="894" cy="138" r="58" fill="#dbeafe" fill-opacity="0.14"/>
  <circle cx="894" cy="138" r="38" fill="#dbeafe" fill-opacity="0.45"/>

  <circle cx="202" cy="120" r="3" fill="#dbeafe"/>
  <circle cx="256" cy="92" r="2.5" fill="#7dd3fc"/>
  <circle cx="310" cy="140" r="2" fill="#f0abfc"/>
  <circle cx="1004" cy="94" r="2.5" fill="#dbeafe"/>
  <circle cx="1050" cy="152" r="3" fill="#67e8f9"/>
  <circle cx="1102" cy="118" r="2" fill="#f9a8d4"/>

  <path d="M120 508C246 456 364 428 510 436C678 446 786 510 960 500C1030 496 1080 486 1140 468V630H120V508Z" fill="url(#river)"/>

  <rect x="152" y="380" width="72" height="180" rx="8" fill="#0f172a" fill-opacity="0.78"/>
  <rect x="242" y="330" width="84" height="230" rx="8" fill="#111827" fill-opacity="0.82"/>
  <rect x="344" y="414" width="64" height="146" rx="8" fill="#0f172a" fill-opacity="0.78"/>
  <rect x="820" y="394" width="96" height="166" rx="8" fill="#0f172a" fill-opacity="0.76"/>
  <rect x="936" y="348" width="88" height="212" rx="8" fill="#111827" fill-opacity="0.82"/>

  <g fill="#fde68a" fill-opacity="0.82">
    <rect x="176" y="408" width="10" height="10" rx="2"/>
    <rect x="194" y="408" width="10" height="10" rx="2"/>
    <rect x="176" y="428" width="10" height="10" rx="2"/>
    <rect x="194" y="448" width="10" height="10" rx="2"/>
    <rect x="268" y="360" width="11" height="11" rx="2"/>
    <rect x="287" y="360" width="11" height="11" rx="2"/>
    <rect x="268" y="382" width="11" height="11" rx="2"/>
    <rect x="287" y="404" width="11" height="11" rx="2"/>
    <rect x="362" y="442" width="10" height="10" rx="2"/>
    <rect x="380" y="462" width="10" height="10" rx="2"/>
    <rect x="854" y="424" width="11" height="11" rx="2"/>
    <rect x="875" y="444" width="11" height="11" rx="2"/>
    <rect x="964" y="378" width="12" height="12" rx="2"/>
    <rect x="986" y="378" width="12" height="12" rx="2"/>
    <rect x="964" y="401" width="12" height="12" rx="2"/>
    <rect x="986" y="424" width="12" height="12" rx="2"/>
  </g>

  <g>
    <rect x="556" y="202" width="88" height="24" rx="10" fill="#dbeafe"/>
    <rect x="575" y="224" width="50" height="24" rx="8" fill="#e0f2fe"/>
    <rect x="588" y="248" width="24" height="164" rx="10" fill="#dbeafe"/>
    <rect x="560" y="404" width="80" height="16" rx="8" fill="#c4b5fd" fill-opacity="0.8"/>
    <rect x="538" y="420" width="124" height="22" rx="10" fill="#e0f2fe"/>
    <rect x="518" y="442" width="164" height="22" rx="11" fill="#dbeafe"/>
    <rect x="506" y="464" width="188" height="18" rx="9" fill="#93c5fd" fill-opacity="0.9"/>
    <rect x="598" y="168" width="4" height="34" rx="2" fill="#67e8f9"/>
    <rect x="594" y="156" width="12" height="12" rx="4" fill="#67e8f9"/>
    <rect x="600" y="132" width="2" height="24" rx="1" fill="#67e8f9"/>
    <circle cx="601" cy="126" r="8" fill="#7dd3fc"/>
    <rect x="586" y="256" width="28" height="160" rx="14" fill="url(#glow)"/>
  </g>

  <text x="108" y="116" fill="#e0f2fe" font-size="50" font-family="Arial, sans-serif" font-weight="700">Seoul Night Walk</text>
  <text x="110" y="166" fill="#bfdbfe" font-size="22" font-family="Arial, sans-serif">서울 야경 산책 코스 추천</text>
</svg>
